<svg width="23" height="23" viewBox="0 0 23 23" fill="none" xmlns="http://www.w3.org/2000/svg">
<rect width="23" height="23" rx="11.5" fill="white"/>
<path d="M12.7573 5.92411C12.9804 5.70105 13.283 5.57574 13.5985 5.57574C13.914 5.57574 14.2166 5.70105 14.4397 5.92411L19.794 11.2784C20.0171 11.5015 20.1424 11.8041 20.1424 12.1196C20.1424 12.4351 20.0171 12.7377 19.794 12.9608L14.4397 18.3151C14.2153 18.5318 13.9148 18.6518 13.6028 18.6491C13.2908 18.6464 12.9924 18.5212 12.7718 18.3006C12.5512 18.08 12.426 17.7816 12.4233 17.4696C12.4206 17.1576 12.5405 16.8571 12.7573 16.6327L15.9782 13.3095H4.6747C4.35914 13.3095 4.0565 13.1841 3.83336 12.961C3.61022 12.7378 3.48486 12.4352 3.48486 12.1196C3.48486 11.804 3.61022 11.5014 3.83336 11.2783C4.0565 11.0551 4.35914 10.9298 4.6747 10.9298H15.9782L12.7573 7.60655C12.5342 7.38342 12.4089 7.08083 12.4089 6.76533C12.4089 6.44983 12.5342 6.14724 12.7573 5.92411Z" fill="#413027"/>
</svg>
